# xmcd CD database file
#
# Track frame offsets:
#	150
#	9761
#	20182
#	30281
#	43571
#	51116
#	62581
#	74360
#	87157
#	97477
#	108275
#	119604
#	130081
#	142495
#	155436
#	169509
#	181721
#	200735
#
# Disc length: 2849 seconds
#
# Revision: 0
# Processed by: cddbd v1.4PL0 Copyright (c) Steve Scherf et al.
# Submitted via: CDex 1.40Release
#
DISCID=f80b1f12
DTITLE=Faron Young - Live ... and More
DYEAR=2000
DGENRE=Country
TTITLE0=Hello Walls
TTITLE1=Alone with You
TTITLE2=Congratulations
TTITLE3=Three Days
TTITLE4=Back Track
TTITLE5=You're Still Mine
TTITLE6=Riverboat
TTITLE7=Country Girl
TTITLE8=If You Ain't Lovin'
TTITLE9=Face to the Wall
TTITLE10=Wind Me Up
TTITLE11=Sweet Dreams of You
TTITLE12=Instrumental
TTITLE13=Little Girl of Mine
TTITLE14=Roseanna
TTITLE15=Four in the Morning
TTITLE16=For the Good Times
TTITLE17=I'm a Free Man Now
EXTD=YEAR: 2000 ID3G: 2
EXTT0=
EXTT1=
EXTT2=
EXTT3=
EXTT4=
EXTT5=
EXTT6=
EXTT7=
EXTT8=
EXTT9=
EXTT10=
EXTT11=
EXTT12=
EXTT13=
EXTT14=
EXTT15=
EXTT16=
EXTT17=
PLAYORDER=
